REM DIRINDEX 1\2,1\3,1\4,1\5
REM DIRNAME "folder01","folder02","folder03","folder04","folder05"
TITLE ""
FILE "P1Q_t_1149-1158.mp3" MP3
  TRACK 01 AUDIO
    TITLE "3:cjc173_4408"
    INDEX 01 00:00:00
  TRACK 02 AUDIO
    TITLE "0:"
    INDEX 01 00:01:22
  TRACK 03 AUDIO
    TITLE "4:cjc173_4409"
    INDEX 01 00:01:41
  TRACK 04 AUDIO
    TITLE "0:"
    INDEX 01 00:03:36
  TRACK 05 AUDIO
    TITLE "5:cjc173_4410"
    INDEX 01 00:03:56
  TRACK 06 AUDIO
    TITLE "0:"
    INDEX 01 00:06:60
  TRACK 07 AUDIO
    TITLE "3:cjc173_4411"
    INDEX 01 00:07:30
  TRACK 08 AUDIO
    TITLE "0:"
    INDEX 01 00:08:55
  TRACK 09 AUDIO
    TITLE "4:cjc173_4412"
    INDEX 01 00:09:03
  TRACK 10 AUDIO
    TITLE "0:"
    INDEX 01 00:11:20
  TRACK 11 AUDIO
    TITLE "5:cjc173_4413"
    INDEX 01 00:11:39
  TRACK 12 AUDIO
    TITLE "0:"
    INDEX 01 00:15:49
  TRACK 13 AUDIO
    TITLE "3:cjc173_4414"
    INDEX 01 00:16:19
  TRACK 14 AUDIO
    TITLE "0:"
    INDEX 01 00:17:21
  TRACK 15 AUDIO
    TITLE "4:cjc173_4415"
    INDEX 01 00:17:42
  TRACK 16 AUDIO
    TITLE "0:"
    INDEX 01 00:22:71
  TRACK 17 AUDIO
    TITLE "5:cjc173_4416"
    INDEX 01 00:23:15
  TRACK 18 AUDIO
    TITLE "0:"
    INDEX 01 00:27:66
  TRACK 19 AUDIO
    TITLE "3:cjc173_4417"
    INDEX 01 00:28:38
  TRACK 20 AUDIO
    TITLE "0:"
    INDEX 01 00:29:53
  TRACK 21 AUDIO
    TITLE "4:cjc173_4418"
    INDEX 01 00:30:00
  TRACK 22 AUDIO
    TITLE "0:"
    INDEX 01 00:31:70
  TRACK 23 AUDIO
    TITLE "5:cjc173_4419"
    INDEX 01 00:32:14
  TRACK 24 AUDIO
    TITLE "0:"
    INDEX 01 00:35:64
  TRACK 25 AUDIO
    TITLE "3:cjc173_4420"
    INDEX 01 00:36:32
  TRACK 26 AUDIO
    TITLE "0:"
    INDEX 01 00:37:62
  TRACK 27 AUDIO
    TITLE "4:cjc173_4421"
    INDEX 01 00:38:09
  TRACK 28 AUDIO
    TITLE "0:"
    INDEX 01 00:39:69
  TRACK 29 AUDIO
    TITLE "5:cjc173_4422"
    INDEX 01 00:40:14
  TRACK 30 AUDIO
    TITLE "0:"
    INDEX 01 00:44:60
  TRACK 31 AUDIO
    TITLE "3:cjc173_4423"
    INDEX 01 00:45:31
  TRACK 32 AUDIO
    TITLE "0:"
    INDEX 01 00:46:40
  TRACK 33 AUDIO
    TITLE "4:cjc173_4424"
    INDEX 01 00:46:61
  TRACK 34 AUDIO
    TITLE "0:"
    INDEX 01 00:49:44
  TRACK 35 AUDIO
    TITLE "5:cjc173_4425"
    INDEX 01 00:49:62
  TRACK 36 AUDIO
    TITLE "0:"
    INDEX 01 00:55:03
  TRACK 37 AUDIO
    TITLE "3:cjc173_4426"
    INDEX 01 00:55:49
  TRACK 38 AUDIO
    TITLE "0:"
    INDEX 01 00:56:58
  TRACK 39 AUDIO
    TITLE "4:cjc173_4427"
    INDEX 01 00:57:02
  TRACK 40 AUDIO
    TITLE "0:"
    INDEX 01 01:00:16
  TRACK 41 AUDIO
    TITLE "5:cjc173_4428"
    INDEX 01 01:00:36
  TRACK 42 AUDIO
    TITLE "0:"
    INDEX 01 01:04:24
  TRACK 43 AUDIO
    TITLE "3:cjc173_4429"
    INDEX 01 01:04:71
  TRACK 44 AUDIO
    TITLE "0:"
    INDEX 01 01:06:15
  TRACK 45 AUDIO
    TITLE "4:cjc173_4430"
    INDEX 01 01:06:39
  TRACK 46 AUDIO
    TITLE "0:"
    INDEX 01 01:07:48
  TRACK 47 AUDIO
    TITLE "5:cjc173_4431"
    INDEX 01 01:07:65
  TRACK 48 AUDIO
    TITLE "0:"
    INDEX 01 01:12:00
  TRACK 49 AUDIO
    TITLE "3:cjc173_4432"
    INDEX 01 01:12:47
  TRACK 50 AUDIO
    TITLE "0:"
    INDEX 01 01:13:70
  TRACK 51 AUDIO
    TITLE "4:cjc173_4433"
    INDEX 01 01:14:15
  TRACK 52 AUDIO
    TITLE "0:"
    INDEX 01 01:16:70
  TRACK 53 AUDIO
    TITLE "5:cjc173_4434"
    INDEX 01 01:17:15
  TRACK 54 AUDIO
    TITLE "0:"
    INDEX 01 01:21:40
  TRACK 55 AUDIO
    TITLE "3:cjc173_4435"
    INDEX 01 01:22:08
  TRACK 56 AUDIO
    TITLE "0:"
    INDEX 01 01:23:16
  TRACK 57 AUDIO
    TITLE "4:cjc173_4436"
    INDEX 01 01:23:37
  TRACK 58 AUDIO
    TITLE "0:"
    INDEX 01 01:24:40
  TRACK 59 AUDIO
    TITLE "5:cjc173_4437"
    INDEX 01 01:24:60
  TRACK 60 AUDIO
    TITLE "0:"
    INDEX 01 01:29:22
